<svg version="1.1" id="Capa_1" xmlns="http://www.w3.org/2000/svg" xmlns:xlink="http://www.w3.org/1999/xlink" x="0px" y="0px" viewBox="0 0 512 512" style="enable-background:new 0 0 512 512;" xml:space="preserve" width="300" height="300" xmlns:svgjs="http://svgjs.dev/svgjs"><g width="100%" height="100%" transform="matrix(1,0,0,1,0,0)"><g>
	<path style="stroke-linecap: round; stroke-linejoin: round; stroke-miterlimit: 10;" d="&#10;&#9;&#9;M114.914,176.485c-4.566,9.506-7.124,20.159-7.124,31.41c0,40.114,32.519,72.633,72.633,72.633s72.633-32.519,72.633-72.633&#10;&#9;&#9;s-32.519-72.633-72.633-72.633c-17.352,0-33.283,6.085-45.776,16.238" fill="none" fill-opacity="1" stroke="#2a7d2e" stroke-opacity="1" data-original-stroke-color="#000000ff" stroke-width="20" data-original-stroke-width="15"/>
	<path style="stroke-linecap: round; stroke-linejoin: round; stroke-miterlimit: 10;" d="&#10;&#9;&#9;M294.506,332.377c-28.022-32.08-69.136-51.85-114.083-51.85h-14.28c-62.854,0-117.22,43.787-130.612,105.198l0,0&#10;&#9;&#9;c-3.974,18.224,9.906,35.458,28.559,35.458h131.423" fill="none" fill-opacity="1" stroke="#2a7d2e" stroke-opacity="1" data-original-stroke-color="#000000ff" stroke-width="20" data-original-stroke-width="15"/>
	<path style="stroke-linecap: round; stroke-linejoin: round; stroke-miterlimit: 10;" d="&#10;&#9;&#9;M187.961,9.985l12.843,21.601c0.713,1.199,1.888,2.053,3.249,2.36l24.513,5.539c3.76,0.85,5.243,5.413,2.7,8.31l-16.575,18.89&#10;&#9;&#9;c-0.92,1.049-1.369,2.43-1.241,3.819l2.306,25.025c0.354,3.839-3.528,6.659-7.069,5.136L185.6,90.739&#10;&#9;&#9;c-1.282-0.551-2.734-0.551-4.016,0l-23.087,9.927c-3.542,1.523-7.423-1.297-7.069-5.136l2.306-25.025&#10;&#9;&#9;c0.128-1.389-0.321-2.77-1.241-3.819l-16.575-18.89c-2.543-2.898-1.06-7.461,2.7-8.31l24.513-5.539&#10;&#9;&#9;c1.361-0.308,2.536-1.161,3.249-2.36l12.843-21.601C181.193,6.672,185.991,6.672,187.961,9.985z" fill="none" fill-opacity="1" stroke="#2a7d2e" stroke-opacity="1" data-original-stroke-color="#000000ff" stroke-width="20" data-original-stroke-width="15"/>
	<path style="stroke-linecap: round; stroke-linejoin: round; stroke-miterlimit: 10;" d="&#10;&#9;&#9;M53.789,26.473l10.519,17.692c0.584,0.982,1.546,1.681,2.661,1.933l20.076,4.537c3.08,0.696,4.294,4.433,2.212,6.806L75.681,72.912&#10;&#9;&#9;c-0.754,0.859-1.121,1.99-1.016,3.128l1.889,20.496c0.29,3.144-2.889,5.454-5.79,4.207l-18.909-8.13&#10;&#9;&#9;c-1.05-0.451-2.239-0.451-3.289,0l-18.909,8.13c-2.901,1.247-6.08-1.062-5.79-4.207l1.889-20.496&#10;&#9;&#9;c0.105-1.138-0.263-2.269-1.016-3.128L11.165,57.441c-2.083-2.373-0.868-6.11,2.212-6.806l20.076-4.537&#10;&#9;&#9;c1.115-0.252,2.077-0.951,2.661-1.933l10.519-17.692C48.246,23.759,52.176,23.759,53.789,26.473z" fill="none" fill-opacity="1" stroke="#2a7d2e" stroke-opacity="1" data-original-stroke-color="#000000ff" stroke-width="20" data-original-stroke-width="15"/>
	<path style="stroke-linecap: round; stroke-linejoin: round; stroke-miterlimit: 10;" d="&#10;&#9;&#9;M306.833,26.473l-10.519,17.692c-0.584,0.982-1.546,1.681-2.661,1.933l-20.076,4.537c-3.08,0.696-4.294,4.433-2.212,6.806&#10;&#9;&#9;l13.575,15.471c0.754,0.859,1.121,1.99,1.016,3.128l-1.889,20.496c-0.29,3.144,2.889,5.454,5.79,4.207l18.909-8.13&#10;&#9;&#9;c1.05-0.451,2.239-0.451,3.289,0l18.909,8.13c2.901,1.247,6.08-1.062,5.79-4.207l-1.889-20.496&#10;&#9;&#9;c-0.105-1.138,0.263-2.269,1.016-3.128l13.575-15.471c2.083-2.373,0.868-6.11-2.212-6.806l-20.076-4.537&#10;&#9;&#9;c-1.115-0.252-2.077-0.951-2.661-1.933l-10.519-17.692C312.376,23.759,308.446,23.759,306.833,26.473z" fill="none" fill-opacity="1" stroke="#2a7d2e" stroke-opacity="1" data-original-stroke-color="#000000ff" stroke-width="20" data-original-stroke-width="15"/>
	<path style="stroke-linecap: round; stroke-linejoin: round; stroke-miterlimit: 10;" d="&#10;&#9;&#9;M501.872,359.382L501.872,359.382c0-11.449-9.282-20.731-20.731-20.731l-75.348-0.116c-9.872-0.015-17.868-8.023-17.868-17.895&#10;&#9;&#9;v-53.537c0-11.042-5.666-21.313-15.01-27.201c-7.458-4.7-17.349-0.942-19.827,7.519l-29.943,102.243&#10;&#9;&#9;c-4.798,16.383-19.824,27.64-36.896,27.64h-20.48v106.951l31.676,0c16.753,0,33.417,3.159,48.781,9.839&#10;&#9;&#9;c15.297,6.651,31.798,10.083,48.476,10.083l86.438,0.324c11.45,0,20.731-9.281,20.731-20.731l0,0&#10;&#9;&#9;c0-11.449-9.282-20.731-20.731-20.731c11.45,0,20.731-9.282,20.731-20.731l0,0c0-11.45-9.282-20.731-20.731-20.731&#10;&#9;&#9;c11.45,0,20.731-9.282,20.731-20.731l0,0c0-11.449-9.282-20.731-20.731-20.731C492.59,380.113,501.872,370.831,501.872,359.382z&#10;&#9;&#9; M501.872,359.382L501.872,359.382c0-11.449-9.282-20.731-20.731-20.731l-75.348-0.116c-9.872-0.015-17.868-8.023-17.868-17.895&#10;&#9;&#9;v-53.537c0-11.042-5.666-21.313-15.01-27.201c-7.458-4.7-17.349-0.942-19.827,7.519l-29.943,102.243&#10;&#9;&#9;c-4.798,16.383-19.824,27.64-36.896,27.64h-20.48v106.951l31.676,0c16.753,0,33.417,3.159,48.781,9.839&#10;&#9;&#9;c15.297,6.651,31.798,10.083,48.476,10.083l86.438,0.324c11.45,0,20.731-9.281,20.731-20.731l0,0&#10;&#9;&#9;c0-11.449-9.282-20.731-20.731-20.731c11.45,0,20.731-9.282,20.731-20.731l0,0c0-11.45-9.282-20.731-20.731-20.731&#10;&#9;&#9;c11.45,0,20.731-9.282,20.731-20.731l0,0c0-11.449-9.282-20.731-20.731-20.731C492.59,380.113,501.872,370.831,501.872,359.382z&#10;&#9;&#9; M481.14,380.113H456.52 M481.14,421.576H456.52 M481.14,463.038H456.52" fill="none" fill-opacity="1" stroke="#2a7d2e" stroke-opacity="1" data-original-stroke-color="#000000ff" stroke-width="20" data-original-stroke-width="15"/>
	<path style="stroke-linecap: round; stroke-linejoin: round; stroke-miterlimit: 10;" d="&#10;&#9;&#9;M257.543,500.217h-49.604c-4.543,0-8.227-3.683-8.227-8.227v-126.47c0-4.543,3.683-8.227,8.227-8.227h49.604&#10;&#9;&#9;c4.543,0,8.227,3.683,8.227,8.227v126.47C265.77,496.534,262.087,500.217,257.543,500.217z" fill="none" fill-opacity="1" stroke="#2a7d2e" stroke-opacity="1" data-original-stroke-color="#000000ff" stroke-width="20" data-original-stroke-width="15"/>
</g><g>
</g><g>
</g><g>
</g><g>
</g><g>
</g><g>
</g><g>
</g><g>
</g><g>
</g><g>
</g><g>
</g><g>
</g><g>
</g><g>
</g><g>
</g></g></svg>