<svg version="1.1" id="svg3933" xml:space="preserve" width="300" height="300" viewBox="0 0 682.66669 682.66669" xmlns="http://www.w3.org/2000/svg" xmlns:svg="http://www.w3.org/2000/svg" xmlns:xlink="http://www.w3.org/1999/xlink" xmlns:svgjs="http://svgjs.dev/svgjs"><g width="100%" height="100%" transform="matrix(1,0,0,1,0,0)"><defs id="defs3937"><clipPath clipPathUnits="userSpaceOnUse" id="clipPath3947"><path d="M 0,512 H 512 V 0 H 0 Z" id="path3945" fill="#2a7d2e" fill-opacity="1" data-original-color="#000000ff" stroke="none" stroke-opacity="1"/></clipPath></defs><g id="g3939" transform="matrix(1.3333333,0,0,-1.3333333,0,682.66667)"><g id="g3941"><g id="g3943" clip-path="url(#clipPath3947)"><g id="g3949" transform="translate(479.5,47.6914)"><path d="m 0,0 h -447 c -13.807,0 -25,-11.193 -25,-25 v -10.191 c 0,-2.762 2.239,-5 5,-5 H 20 c 2.761,0 5,2.238 5,5 V -25 C 25,-11.193 13.807,0 0,0 Z" style="stroke-linecap: round; stroke-linejoin: round; stroke-miterlimit: 10; stroke-dasharray: none;" id="path3951" fill="none" fill-opacity="1" stroke="#2a7d2e" stroke-opacity="1" data-original-stroke-color="#000000ff" stroke-width="20" data-original-stroke-width="15"/></g><g id="g3953" transform="translate(298.103,325.6006)"><path d="m 0,0 h -84.206 c -12.231,0 -22.146,9.915 -22.146,22.146 0,12.23 9.915,22.145 22.146,22.145 H 0 c 12.23,0 22.146,-9.915 22.146,-22.145 C 22.146,9.915 12.23,0 0,0 Z" style="stroke-linecap: round; stroke-linejoin: round; stroke-miterlimit: 10; stroke-dasharray: none;" id="path3955" fill="none" fill-opacity="1" stroke="#2a7d2e" stroke-opacity="1" data-original-stroke-color="#000000ff" stroke-width="20" data-original-stroke-width="15"/></g><g id="g3957" transform="translate(256,367.8916)"><path d="M 0,0 V -40.291" style="stroke-linecap: round; stroke-linejoin: round; stroke-miterlimit: 10; stroke-dasharray: none;" id="path3959" fill="none" fill-opacity="1" stroke="#2a7d2e" stroke-opacity="1" data-original-stroke-color="#000000ff" stroke-width="20" data-original-stroke-width="15"/></g><g id="g3961" transform="translate(143.4316,206.3662)"><path d="M 0,0 H 225.137" style="stroke-linecap: round; stroke-linejoin: round; stroke-miterlimit: 10; stroke-dasharray: none;" id="path3963" fill="none" fill-opacity="1" stroke="#2a7d2e" stroke-opacity="1" data-original-stroke-color="#000000ff" stroke-width="20" data-original-stroke-width="15"/></g><g id="g3965" transform="translate(143.4316,246.3711)"><path d="M 0,0 H 225.137" style="stroke-linecap: round; stroke-linejoin: round; stroke-miterlimit: 10; stroke-dasharray: none;" id="path3967" fill="none" fill-opacity="1" stroke="#2a7d2e" stroke-opacity="1" data-original-stroke-color="#000000ff" stroke-width="20" data-original-stroke-width="15"/></g><g id="g3969" transform="translate(143.4316,166.8096)"><path d="M 0,0 H 225.137" style="stroke-linecap: round; stroke-linejoin: round; stroke-miterlimit: 10; stroke-dasharray: none;" id="path3971" fill="none" fill-opacity="1" stroke="#2a7d2e" stroke-opacity="1" data-original-stroke-color="#000000ff" stroke-width="20" data-original-stroke-width="15"/></g><g id="g3973" transform="translate(152.3037,434.1533)"><path d="m 0,0 91.834,66.501 c 7.078,5.128 16.646,5.128 23.724,0 l 207.69,-150.398 c 9.046,-6.551 11.069,-19.196 4.518,-28.242 -3.955,-5.462 -10.132,-8.363 -16.396,-8.363 -4.112,-0.001 -8.261,1.249 -11.846,3.844 L 103.696,25.152 -92.132,-116.658 c -9.046,-6.551 -21.69,-4.528 -28.242,4.519 -6.551,9.046 -4.528,21.691 4.519,28.242 l 88.908,64.383" style="stroke-linecap: round; stroke-linejoin: round; stroke-miterlimit: 10; stroke-dasharray: none;" id="path3975" fill="none" fill-opacity="1" stroke="#2a7d2e" stroke-opacity="1" data-original-stroke-color="#000000ff" stroke-width="20" data-original-stroke-width="15"/></g><g id="g3977" transform="translate(419.9761,336.9512)"><path d="M 0,0 V -64.607" style="stroke-linecap: round; stroke-linejoin: round; stroke-miterlimit: 10; stroke-dasharray: none;" id="path3979" fill="none" fill-opacity="1" stroke="#2a7d2e" stroke-opacity="1" data-original-stroke-color="#000000ff" stroke-width="20" data-original-stroke-width="15"/></g><g id="g3981" transform="translate(92.0239,49.6914)"><path d="M 0,0 V 287.981" style="stroke-linecap: round; stroke-linejoin: round; stroke-miterlimit: 10; stroke-dasharray: none;" id="path3983" fill="none" fill-opacity="1" stroke="#2a7d2e" stroke-opacity="1" data-original-stroke-color="#000000ff" stroke-width="20" data-original-stroke-width="15"/></g><g id="g3985" transform="translate(419.9761,239.6572)"><path d="M 0,0 V -189.966" style="stroke-linecap: round; stroke-linejoin: round; stroke-miterlimit: 10; stroke-dasharray: none;" id="path3987" fill="none" fill-opacity="1" stroke="#2a7d2e" stroke-opacity="1" data-original-stroke-color="#000000ff" stroke-width="20" data-original-stroke-width="15"/></g><g id="g3989" transform="translate(370.5684,49.6914)"><path d="m 0,0 v 226.125 c 0,5.585 -4.527,10.111 -10.112,10.111 h -208.913 c -5.584,0 -10.112,-4.526 -10.112,-10.111 V 74.188" style="stroke-linecap: round; stroke-linejoin: round; stroke-miterlimit: 10; stroke-dasharray: none;" id="path3991" fill="none" fill-opacity="1" stroke="#2a7d2e" stroke-opacity="1" data-original-stroke-color="#000000ff" stroke-width="20" data-original-stroke-width="15"/></g><g id="g3993" transform="translate(141.4316,91.1943)"><path d="M 0,0 V -41.503" style="stroke-linecap: round; stroke-linejoin: round; stroke-miterlimit: 10; stroke-dasharray: none;" id="path3995" fill="none" fill-opacity="1" stroke="#2a7d2e" stroke-opacity="1" data-original-stroke-color="#000000ff" stroke-width="20" data-original-stroke-width="15"/></g></g></g></g></g></svg>