<svg xmlns="http://www.w3.org/2000/svg" xmlns:xlink="http://www.w3.org/1999/xlink" version="1.1" id="Capa_1" x="0px" y="0px" viewBox="0 0 512 512" style="enable-background:new 0 0 512 512;" xml:space="preserve" width="300" height="300" xmlns:svgjs="http://svgjs.dev/svgjs"><g width="100%" height="100%" transform="matrix(1,0,0,1,0,0)"><g>
	<polyline style="stroke-miterlimit: 10;" points="256,45 344,45 344,275.847 &#9;" fill="none" fill-opacity="1" stroke="#2a7d2e" stroke-opacity="1" data-original-stroke-color="#000000ff" stroke-width="20" data-original-stroke-width="30"/>
	<polyline style="stroke-miterlimit: 10;" points="383,497 15,497 15,45 103,45 &#9;" fill="none" fill-opacity="1" stroke="#2a7d2e" stroke-opacity="1" data-original-stroke-color="#000000ff" stroke-width="20" data-original-stroke-width="30"/>
	<rect x="103" y="15" style="stroke-miterlimit: 10;" width="153" height="60" fill="none" fill-opacity="1" stroke="#2a7d2e" stroke-opacity="1" data-original-stroke-color="#000000ff" stroke-width="20" data-original-stroke-width="30"/>
	<g>
		
			<ellipse transform="matrix(0.7071 -0.7071 0.7071 0.7071 -158.6438 383)" style="stroke-miterlimit: 10;" cx="383" cy="383" rx="114" ry="114" fill="none" fill-opacity="1" stroke="#2a7d2e" stroke-opacity="1" data-original-stroke-color="#000000ff" stroke-width="20" data-original-stroke-width="30"/>
		<polyline style="stroke-miterlimit: 10;" points="439.392,347.608 368.608,418.392 &#10;&#9;&#9;&#9;326.608,376.392 &#9;&#9;" fill="none" fill-opacity="1" stroke="#2a7d2e" stroke-opacity="1" data-original-stroke-color="#000000ff" stroke-width="20" data-original-stroke-width="30"/>
	</g>
	<rect x="75" y="135" style="stroke-miterlimit: 10;" width="60" height="60" fill="none" fill-opacity="1" stroke="#2a7d2e" stroke-opacity="1" data-original-stroke-color="#000000ff" stroke-width="20" data-original-stroke-width="30"/>
	<rect x="75" y="255" style="stroke-miterlimit: 10;" width="60" height="60" fill="none" fill-opacity="1" stroke="#2a7d2e" stroke-opacity="1" data-original-stroke-color="#000000ff" stroke-width="20" data-original-stroke-width="30"/>
	<rect x="75" y="375" style="stroke-miterlimit: 10;" width="60" height="60" fill="none" fill-opacity="1" stroke="#2a7d2e" stroke-opacity="1" data-original-stroke-color="#000000ff" stroke-width="20" data-original-stroke-width="30"/>
	<line style="stroke-miterlimit: 10;" x1="180" y1="165" x2="299" y2="165" fill="none" fill-opacity="1" stroke="#2a7d2e" stroke-opacity="1" data-original-stroke-color="#000000ff" stroke-width="20" data-original-stroke-width="30"/>
	<line style="stroke-miterlimit: 10;" x1="180" y1="285" x2="299" y2="285" fill="none" fill-opacity="1" stroke="#2a7d2e" stroke-opacity="1" data-original-stroke-color="#000000ff" stroke-width="20" data-original-stroke-width="30"/>
	<line style="stroke-miterlimit: 10;" x1="180" y1="405" x2="271.129" y2="405" fill="none" fill-opacity="1" stroke="#2a7d2e" stroke-opacity="1" data-original-stroke-color="#000000ff" stroke-width="20" data-original-stroke-width="30"/>
</g></g></svg>