<svg version="1.1" id="svg3942" xml:space="preserve" width="300" height="300" viewBox="0 0 682.66669 682.66669" xmlns="http://www.w3.org/2000/svg" xmlns:svg="http://www.w3.org/2000/svg" xmlns:xlink="http://www.w3.org/1999/xlink" xmlns:svgjs="http://svgjs.dev/svgjs"><g width="100%" height="100%" transform="matrix(1,0,0,1,0,0)"><defs id="defs3946"><clipPath clipPathUnits="userSpaceOnUse" id="clipPath3956"><path d="M 0,512 H 512 V 0 H 0 Z" id="path3954" fill="#2a7d2e" fill-opacity="1" data-original-color="#000000ff" stroke="none" stroke-opacity="1"/></clipPath></defs><g id="g3948" transform="matrix(1.3333333,0,0,-1.3333333,0,682.66667)"><g id="g3950"><g id="g3952" clip-path="url(#clipPath3956)"><g id="g3958" transform="translate(276.6064,495.9531)"><path d="m 0,0 v 0 c 18.931,12.137 44.198,5.366 54.524,-14.609 6.851,-13.251 20.791,-21.3 35.692,-20.607 22.463,1.045 40.96,-17.452 39.915,-39.915 -0.694,-14.9 7.355,-28.841 20.606,-35.691 19.976,-10.326 26.746,-35.594 14.61,-54.525 -8.051,-12.557 -8.051,-28.655 0,-41.213 12.136,-18.93 5.366,-44.198 -14.61,-54.524 -13.251,-6.851 -21.3,-20.79 -20.606,-35.691 1.045,-22.463 -17.452,-40.96 -39.915,-39.915 -14.901,0.693 -28.841,-7.356 -35.692,-20.607 C 44.198,-377.272 18.931,-384.043 0,-371.906 v 0 c -12.558,8.051 -28.655,8.051 -41.213,0 v 0 c -18.931,-12.137 -44.198,-5.366 -54.524,14.609 -6.85,13.251 -20.791,21.3 -35.692,20.607 -22.463,-1.045 -40.96,17.452 -39.915,39.915 0.694,14.901 -7.355,28.84 -20.606,35.691 -19.976,10.326 -26.746,35.594 -14.61,54.524 8.051,12.558 8.051,28.656 0,41.213 -12.136,18.931 -5.366,44.199 14.61,54.525 13.251,6.85 21.3,20.791 20.606,35.691 -1.045,22.463 17.452,40.96 39.915,39.915 14.901,-0.693 28.842,7.356 35.692,20.607 C -85.411,5.366 -60.144,12.137 -41.213,0 V 0 C -28.655,-8.051 -12.558,-8.051 0,0 Z" style="stroke-linecap: round; stroke-linejoin: round; stroke-miterlimit: 10; stroke-dasharray: none;" id="path3960" fill="none" fill-opacity="1" stroke="#2a7d2e" stroke-opacity="1" data-original-stroke-color="#000000ff" stroke-width="20" data-original-stroke-width="20"/></g><g id="g3962" transform="translate(224.7041,331.1523)"><path d="m 0,0 c 0,4.752 -3.852,8.604 -8.604,8.604 h -29.599 c -4.752,0 -8.604,-3.852 -8.604,-8.604 v -81.912 c 0,-4.752 3.852,-8.604 8.604,-8.604 h 29.599 c 4.752,0 8.604,3.852 8.604,8.604 z" style="stroke-linecap: round; stroke-linejoin: round; stroke-miterlimit: 10; stroke-dasharray: none;" id="path3964" fill="none" fill-opacity="1" stroke="#2a7d2e" stroke-opacity="1" data-original-stroke-color="#000000ff" stroke-width="20" data-original-stroke-width="20"/></g><g id="g3966" transform="translate(224.4482,333.2373)"><path d="m 0,0 6.114,3.885 c 13.478,8.564 24.758,20.174 32.93,33.893 4.2,7.049 12.815,10.121 20.527,7.318 8.749,-3.18 13.345,-12.776 10.34,-21.586 l -9.59,-28.111" style="stroke-linecap: round; stroke-linejoin: round; stroke-miterlimit: 10; stroke-dasharray: none;" id="path3968" fill="none" fill-opacity="1" stroke="#2a7d2e" stroke-opacity="1" data-original-stroke-color="#000000ff" stroke-width="20" data-original-stroke-width="20"/></g><g id="g3970" transform="translate(224.7041,251.2656)"><path d="m 0,0 v 0 c 10.591,-6.936 22.975,-10.629 35.635,-10.629 h 51.278 c 12.419,0 22.486,10.067 22.486,22.485 v 43.029 c 0,12.418 -10.067,22.486 -22.486,22.486 H 54.7" style="stroke-linecap: round; stroke-linejoin: round; stroke-miterlimit: 10; stroke-dasharray: none;" id="path3972" fill="none" fill-opacity="1" stroke="#2a7d2e" stroke-opacity="1" data-original-stroke-color="#000000ff" stroke-width="20" data-original-stroke-width="20"/></g><g id="g3974" transform="translate(352.1465,155.5586)"><path d="m 0,0 56.325,-97.559 -65.569,17.57 -17.569,-65.57 -69.333,120.089" style="stroke-linecap: round; stroke-linejoin: round; stroke-miterlimit: 10; stroke-dasharray: none;" id="path3976" fill="none" fill-opacity="1" stroke="#2a7d2e" stroke-opacity="1" data-original-stroke-color="#000000ff" stroke-width="20" data-original-stroke-width="20"/></g><g id="g3978" transform="translate(159.8535,155.5586)"><path d="m 0,0 -56.325,-97.559 65.569,17.57 17.569,-65.57 69.333,120.089" style="stroke-linecap: round; stroke-linejoin: round; stroke-miterlimit: 10; stroke-dasharray: none;" id="path3980" fill="none" fill-opacity="1" stroke="#2a7d2e" stroke-opacity="1" data-original-stroke-color="#000000ff" stroke-width="20" data-original-stroke-width="20"/></g><g id="g3982" transform="translate(132.1914,371.0244)"><path d="m 0,0 c -9.086,-18.399 -14.191,-39.115 -14.191,-61.024 0,-76.215 61.784,-138 138,-138 76.215,0 138,61.785 138,138 0,76.214 -61.785,138 -138,138 -21.909,0 -42.626,-5.106 -61.025,-14.192" style="stroke-linecap: round; stroke-linejoin: round; stroke-miterlimit: 10; stroke-dasharray: none;" id="path3984" fill="none" fill-opacity="1" stroke="#2a7d2e" stroke-opacity="1" data-original-stroke-color="#000000ff" stroke-width="20" data-original-stroke-width="20"/></g><g id="g3986" transform="translate(158.4194,407.5811)"><path d="M 0,0 V 0" style="stroke-linecap: round; stroke-linejoin: round; stroke-miterlimit: 10; stroke-dasharray: none;" id="path3988" fill="none" fill-opacity="1" stroke="#2a7d2e" stroke-opacity="1" data-original-stroke-color="#000000ff" stroke-width="20" data-original-stroke-width="20"/></g></g></g></g></g></svg>